<svg width="646" height="405" viewBox="0 0 646 405" fill="none" xmlns="http://www.w3.org/2000/svg">
<g clip-path="url(#clip0_70_126)" filter="url(#filter0_d_70_126)">
<path d="M504.031 68.5928H67.8203C55.1178 68.5928 44.8203 78.8902 44.8203 91.5928V353.308C44.8203 366.01 55.1178 376.308 67.8203 376.308H504.031C516.734 376.308 527.031 366.01 527.031 353.308V91.5928C527.031 78.8902 516.734 68.5928 504.031 68.5928Z" fill="white"/>
<path d="M372.841 105.032C363.605 105.032 356.092 112.546 356.092 121.782C356.092 131.018 363.605 138.532 372.841 138.532C382.078 138.532 389.591 131.018 389.591 121.782C389.591 112.546 382.078 105.032 372.841 105.032ZM371.486 127.291C370.153 128.076 368.472 127.114 368.472 125.568V117.996C368.472 116.449 370.153 115.488 371.486 116.272L377.922 120.058C379.236 120.831 379.236 122.733 377.922 123.506L371.486 127.291Z" fill="#B5B5E2"/>
<path d="M459.286 108.015H401.274C399.052 108.015 397.251 109.816 397.251 112.038C397.251 114.259 399.052 116.061 401.274 116.061H459.286C461.507 116.061 463.308 114.259 463.308 112.038C463.308 109.816 461.507 108.015 459.286 108.015Z" fill="#BBBBD5"/>
<path d="M488.877 121.266H399.891C398.433 121.266 397.251 122.448 397.251 123.906C397.251 125.364 398.433 126.546 399.891 126.546H488.877C490.336 126.546 491.518 125.364 491.518 123.906C491.518 122.448 490.336 121.266 488.877 121.266Z" fill="#E5E5EE"/>
<path d="M452.407 130.267H399.891C398.433 130.267 397.251 131.449 397.251 132.907C397.251 134.365 398.433 135.547 399.891 135.547H452.407C453.865 135.547 455.047 134.365 455.047 132.907C455.047 131.449 453.865 130.267 452.407 130.267Z" fill="#E5E5EE"/>
<path d="M372.841 155.367C363.605 155.367 356.092 162.88 356.092 172.116C356.092 181.353 363.605 188.866 372.841 188.866C382.078 188.866 389.591 181.353 389.591 172.116C389.591 162.88 382.078 155.367 372.841 155.367ZM371.486 177.626C370.153 178.41 368.472 177.449 368.472 175.902V168.331C368.472 166.784 370.153 165.823 371.486 166.607L377.922 170.393C379.236 171.166 379.236 173.067 377.922 173.84L371.486 177.626Z" fill="#B5B5E2"/>
<path d="M430.386 158.35H401.275C399.053 158.35 397.252 160.151 397.252 162.372C397.252 164.594 399.053 166.395 401.275 166.395H430.386C432.608 166.395 434.409 164.594 434.409 162.372C434.409 160.151 432.608 158.35 430.386 158.35Z" fill="#BBBBD5"/>
<path d="M452.408 171.6H399.892C398.434 171.6 397.252 172.782 397.252 174.24C397.252 175.699 398.434 176.881 399.892 176.881H452.408C453.866 176.881 455.048 175.699 455.048 174.24C455.048 172.782 453.866 171.6 452.408 171.6Z" fill="#E5E5EE"/>
<path d="M488.878 180.602H399.892C398.434 180.602 397.252 181.784 397.252 183.242C397.252 184.701 398.434 185.883 399.892 185.883H488.878C490.337 185.883 491.519 184.701 491.519 183.242C491.519 181.784 490.337 180.602 488.878 180.602Z" fill="#E5E5EE"/>
<path d="M372.841 205.7C363.605 205.7 356.092 213.214 356.092 222.45C356.092 231.686 363.605 239.2 372.841 239.2C382.078 239.2 389.591 231.686 389.591 222.45C389.591 213.214 382.078 205.7 372.841 205.7ZM371.486 227.959C370.153 228.744 368.472 227.782 368.472 226.236V218.664C368.472 217.117 370.153 216.156 371.486 216.94L377.922 220.726C379.236 221.499 379.236 223.4 377.922 224.174L371.486 227.959Z" fill="#B5B5E2"/>
<path d="M478.28 208.684H401.275C399.053 208.684 397.252 210.485 397.252 212.707C397.252 214.928 399.053 216.729 401.275 216.729H478.28C480.501 216.729 482.303 214.928 482.303 212.707C482.303 210.485 480.501 208.684 478.28 208.684Z" fill="#BBBBD5"/>
<path d="M466.348 221.933H399.892C398.434 221.933 397.252 223.115 397.252 224.573C397.252 226.032 398.434 227.214 399.892 227.214H466.348C467.806 227.214 468.989 226.032 468.989 224.573C468.989 223.115 467.806 221.933 466.348 221.933Z" fill="#E5E5EE"/>
<path d="M488.878 230.937H399.892C398.434 230.937 397.252 232.119 397.252 233.577C397.252 235.036 398.434 236.218 399.892 236.218H488.878C490.337 236.218 491.519 235.036 491.519 233.577C491.519 232.119 490.337 230.937 488.878 230.937Z" fill="#E5E5EE"/>
<path d="M372.841 256.035C363.605 256.035 356.092 263.548 356.092 272.785C356.092 282.021 363.605 289.535 372.841 289.535C382.078 289.535 389.591 282.021 389.591 272.785C389.591 263.548 382.078 256.035 372.841 256.035ZM371.486 278.294C370.153 279.079 368.472 278.117 368.472 276.57V268.999C368.472 267.452 370.153 266.491 371.486 267.275L377.922 271.061C379.236 271.834 379.236 273.735 377.922 274.509L371.486 278.294Z" fill="#B5B5E2"/>
<path d="M430.386 259.019H401.275C399.053 259.019 397.252 260.82 397.252 263.042C397.252 265.263 399.053 267.064 401.275 267.064H430.386C432.608 267.064 434.409 265.263 434.409 263.042C434.409 260.82 432.608 259.019 430.386 259.019Z" fill="#BBBBD5"/>
<path d="M477.872 272.268H399.892C398.434 272.268 397.252 273.45 397.252 274.908C397.252 276.367 398.434 277.549 399.892 277.549H477.872C479.33 277.549 480.512 276.367 480.512 274.908C480.512 273.45 479.33 272.268 477.872 272.268Z" fill="#E5E5EE"/>
<path d="M447.86 281.27H399.892C398.434 281.27 397.252 282.452 397.252 283.91C397.252 285.369 398.434 286.551 399.892 286.551H447.86C449.318 286.551 450.5 285.369 450.5 283.91C450.5 282.452 449.318 281.27 447.86 281.27Z" fill="#E5E5EE"/>
<path d="M372.841 306.37C363.605 306.37 356.092 313.883 356.092 323.119C356.092 332.356 363.605 339.869 372.841 339.869C382.078 339.869 389.591 332.356 389.591 323.119C389.591 313.883 382.078 306.37 372.841 306.37ZM371.486 328.629C370.153 329.413 368.472 328.452 368.472 326.905V319.334C368.472 317.787 370.153 316.826 371.486 317.61L377.922 321.395C379.236 322.169 379.236 324.07 377.922 324.843L371.486 328.629Z" fill="#6B6B89"/>
<path d="M430.386 309.353H401.275C399.053 309.353 397.252 311.154 397.252 313.376C397.252 315.597 399.053 317.398 401.275 317.398H430.386C432.608 317.398 434.409 315.597 434.409 313.376C434.409 311.154 432.608 309.353 430.386 309.353Z" fill="#BBBBD5"/>
<path d="M477.872 322.602H399.892C398.434 322.602 397.252 323.784 397.252 325.242C397.252 326.701 398.434 327.883 399.892 327.883H477.872C479.33 327.883 480.512 326.701 480.512 325.242C480.512 323.784 479.33 322.602 477.872 322.602Z" fill="#E5E5EE"/>
<path d="M447.86 331.604H399.892C398.434 331.604 397.252 332.786 397.252 334.244C397.252 335.703 398.434 336.885 399.892 336.885H447.86C449.318 336.885 450.5 335.703 450.5 334.244C450.5 332.786 449.318 331.604 447.86 331.604Z" fill="#E5E5EE"/>
<path d="M312.894 105.033H87.333C83.467 105.033 80.333 108.167 80.333 112.033V232.386C80.333 236.252 83.467 239.386 87.333 239.386H312.894C316.76 239.386 319.894 236.252 319.894 232.386V112.033C319.894 108.167 316.76 105.033 312.894 105.033Z" fill="#EDEDFF"/>
<g filter="url(#filter1_d_70_126)">
<path d="M200.113 135.273C180.513 135.273 164.569 151.217 164.569 170.817C164.569 190.418 180.513 206.361 200.113 206.361C219.713 206.361 235.657 190.418 235.657 170.817C235.657 151.217 219.713 135.273 200.113 135.273ZM193.855 184.498C192.522 185.283 190.841 184.321 190.841 182.774V158.86C190.841 157.313 192.522 156.352 193.855 157.136L214.182 169.094C215.497 169.867 215.497 171.768 214.182 172.541L193.855 184.498Z" fill="#3434FF" fill-opacity="0.01"/>
</g>
<path d="M200.53 191.96C212.256 191.96 221.762 182.454 221.762 170.728C221.762 159.002 212.256 149.496 200.53 149.496C188.804 149.496 179.298 159.002 179.298 170.728C179.298 182.454 188.804 191.96 200.53 191.96Z" fill="white"/>
<path d="M200.113 135.273C180.513 135.273 164.569 151.217 164.569 170.817C164.569 190.418 180.513 206.361 200.113 206.361C219.713 206.361 235.657 190.418 235.657 170.817C235.657 151.217 219.713 135.273 200.113 135.273ZM193.855 184.498C192.522 185.283 190.841 184.321 190.841 182.774V158.86C190.841 157.313 192.522 156.352 193.855 157.136L214.182 169.094C215.497 169.867 215.497 171.768 214.182 172.541L193.855 184.498Z" fill="#3434FF"/>
<path d="M216.091 251.098H85.9848C82.8629 251.098 80.332 253.629 80.332 256.751C80.332 259.873 82.8629 262.404 85.9848 262.404H216.091C219.213 262.404 221.744 259.873 221.744 256.751C221.744 253.629 219.213 251.098 216.091 251.098Z" fill="#BBBBD4"/>
<path d="M315.371 311.606H84.8543C82.3567 311.606 80.332 313.631 80.332 316.128C80.332 318.626 82.3567 320.65 84.8543 320.65H315.371C317.868 320.65 319.893 318.626 319.893 316.128C319.893 313.631 317.868 311.606 315.371 311.606Z" fill="#E7E7F4"/>
<path d="M168.863 269.187H84.8543C82.3567 269.187 80.332 271.212 80.332 273.709C80.332 276.207 82.3567 278.231 84.8543 278.231H168.863C171.36 278.231 173.385 276.207 173.385 273.709C173.385 271.212 171.36 269.187 168.863 269.187Z" fill="#E7E7F4"/>
<path d="M233.447 330.825H84.8543C82.3567 330.825 80.332 332.85 80.332 335.347C80.332 337.845 82.3567 339.869 84.8543 339.869H233.447C235.944 339.869 237.969 337.845 237.969 335.347C237.969 332.85 235.944 330.825 233.447 330.825Z" fill="#E7E7F4"/>
<path d="M290.687 266.87C295.042 266.87 298.573 263.339 298.573 258.984C298.573 254.629 295.042 251.098 290.687 251.098C286.332 251.098 282.801 254.629 282.801 258.984C282.801 263.339 286.332 266.87 290.687 266.87Z" fill="#E7E7F4"/>
<path d="M312.007 266.87C316.362 266.87 319.893 263.339 319.893 258.984C319.893 254.629 316.362 251.098 312.007 251.098C307.652 251.098 304.121 254.629 304.121 258.984C304.121 263.339 307.652 266.87 312.007 266.87Z" fill="#E7E7F4"/>
<path d="M80.332 295.534H319.893" stroke="#E7E7F4"/>
</g>
<g clip-path="url(#clip1_70_126)" filter="url(#filter2_d_70_126)">
<path d="M114 146H26C13.8497 146 4 155.85 4 168V358.226C4 370.376 13.8497 380.226 26 380.226H114C126.15 380.226 136 370.376 136 358.226V168C136 155.85 126.15 146 114 146Z" fill="white"/>
<g filter="url(#filter3_d_70_126)">
<path d="M89.0886 348.508H50.9122C46.3585 348.508 42.667 352.199 42.667 356.753C42.667 361.307 46.3585 364.998 50.9122 364.998H89.0886C93.6423 364.998 97.3338 361.307 97.3338 356.753C97.3338 352.199 93.6423 348.508 89.0886 348.508Z" fill="#3434FF" fill-opacity="0.01"/>
</g>
<path d="M89.0886 348.508H50.9122C46.3585 348.508 42.667 352.199 42.667 356.753C42.667 361.307 46.3585 364.998 50.9122 364.998H89.0886C93.6423 364.998 97.3338 361.307 97.3338 356.753C97.3338 352.199 93.6423 348.508 89.0886 348.508Z" fill="#3434FF"/>
<g filter="url(#filter4_d_70_126)">
<path d="M115.609 161.227H24.3896C20.5236 161.227 17.3896 164.361 17.3896 168.227V195.401C17.3896 199.267 20.5236 202.401 24.3896 202.401H115.609C119.475 202.401 122.609 199.267 122.609 195.401V168.227C122.609 164.361 119.475 161.227 115.609 161.227Z" fill="#3434FF" fill-opacity="0.01"/>
</g>
<path d="M115.609 161.227H24.3896C20.5236 161.227 17.3896 164.361 17.3896 168.227V195.401C17.3896 199.267 20.5236 202.401 24.3896 202.401H115.609C119.475 202.401 122.609 199.267 122.609 195.401V168.227C122.609 164.361 119.475 161.227 115.609 161.227Z" fill="#3434FF"/>
<path d="M94.679 183.993H45.3203C43.7249 183.993 42.4316 185.287 42.4316 186.882C42.4316 188.477 43.7249 189.771 45.3203 189.771H94.679C96.2744 189.771 97.5677 188.477 97.5677 186.882C97.5677 185.287 96.2744 183.993 94.679 183.993Z" fill="#D6D6FF"/>
<path d="M84.7926 173.856H55.2071C53.6117 173.856 52.3184 175.15 52.3184 176.745C52.3184 178.34 53.6117 179.634 55.2071 179.634H84.7926C86.388 179.634 87.6813 178.34 87.6813 176.745C87.6813 175.15 86.388 173.856 84.7926 173.856Z" fill="white"/>
<path d="M116.609 267.773H23.3896C20.0759 267.773 17.3896 270.459 17.3896 273.773V331.36C17.3896 334.673 20.0759 337.36 23.3896 337.36H116.609C119.922 337.36 122.609 334.673 122.609 331.36V273.773C122.609 270.459 119.922 267.773 116.609 267.773Z" fill="#F8F8FF"/>
<path d="M85.3853 282.384H55.8668C54.6686 282.384 53.6973 283.355 53.6973 284.553C53.6973 285.752 54.6686 286.723 55.8668 286.723H85.3853C86.5834 286.723 87.5547 285.752 87.5547 284.553C87.5547 283.355 86.5834 282.384 85.3853 282.384Z" fill="#BCBCDF"/>
<path d="M105.424 290.043H55.8668C54.6686 290.043 53.6973 291.014 53.6973 292.212C53.6973 293.411 54.6686 294.382 55.8668 294.382H105.424C106.622 294.382 107.594 293.411 107.594 292.212C107.594 291.014 106.622 290.043 105.424 290.043Z" fill="#E0E0EF"/>
<path d="M108.776 310.752H55.8668C54.6686 310.752 53.6973 311.723 53.6973 312.921C53.6973 314.12 54.6686 315.091 55.8668 315.091H108.776C109.974 315.091 110.946 314.12 110.946 312.921C110.946 311.723 109.974 310.752 108.776 310.752Z" fill="#BCBCDF"/>
<path d="M91.5337 318.412H55.8668C54.6686 318.412 53.6973 319.383 53.6973 320.581C53.6973 321.78 54.6686 322.751 55.8668 322.751H91.5337C92.7318 322.751 93.7031 321.78 93.7031 320.581C93.7031 319.383 92.7318 318.412 91.5337 318.412Z" fill="#E0E0EF"/>
<path d="M44.0148 277.52H28.2256C26.5687 277.52 25.2256 278.863 25.2256 280.52V296.247C25.2256 297.904 26.5687 299.247 28.2256 299.247H44.0148C45.6716 299.247 47.0148 297.904 47.0148 296.247V280.52C47.0148 278.863 45.6716 277.52 44.0148 277.52Z" fill="#DFDFF4"/>
<path d="M44.0148 305.888H28.2256C26.5687 305.888 25.2256 307.231 25.2256 308.888V324.615C25.2256 326.272 26.5687 327.615 28.2256 327.615H44.0148C45.6716 327.615 47.0148 326.272 47.0148 324.615V308.888C47.0148 307.231 45.6716 305.888 44.0148 305.888Z" fill="#DFDFF4"/>
<path d="M24.0489 231.544C27.7267 231.544 30.7082 228.571 30.7082 224.903C30.7082 221.235 27.7267 218.262 24.0489 218.262C20.3711 218.262 17.3896 221.235 17.3896 224.903C17.3896 228.571 20.3711 231.544 24.0489 231.544Z" fill="#3434FF"/>
<path d="M83.6349 231.544C87.3127 231.544 90.2942 228.571 90.2942 224.903C90.2942 221.235 87.3127 218.262 83.6349 218.262C79.9571 218.262 76.9756 221.235 76.9756 224.903C76.9756 228.571 79.9571 231.544 83.6349 231.544Z" fill="#3434FF"/>
<path d="M24.0489 253.546C27.7267 253.546 30.7082 250.573 30.7082 246.905C30.7082 243.237 27.7267 240.264 24.0489 240.264C20.3711 240.264 17.3896 243.237 17.3896 246.905C17.3896 250.573 20.3711 253.546 24.0489 253.546Z" fill="#DFDFF4"/>
<path d="M83.6349 253.546C87.3127 253.546 90.2942 250.573 90.2942 246.905C90.2942 243.237 87.3127 240.264 83.6349 240.264C79.9571 240.264 76.9756 243.237 76.9756 246.905C76.9756 250.573 79.9571 253.546 83.6349 253.546Z" fill="#DFDFF4"/>
<path d="M53.3547 219.742H36.5944C35.702 219.742 34.9785 220.466 34.9785 221.358C34.9785 222.25 35.702 222.974 36.5944 222.974H53.3547C54.2471 222.974 54.9705 222.25 54.9705 221.358C54.9705 220.466 54.2471 219.742 53.3547 219.742Z" fill="#BCBCDF"/>
<path d="M112.94 219.742H96.1793C95.2869 219.742 94.5635 220.466 94.5635 221.358C94.5635 222.25 95.2869 222.974 96.1793 222.974H112.94C113.832 222.974 114.555 222.25 114.555 221.358C114.555 220.466 113.832 219.742 112.94 219.742Z" fill="#BCBCDF"/>
<path d="M53.3547 241.745H36.5944C35.702 241.745 34.9785 242.469 34.9785 243.361C34.9785 244.253 35.702 244.977 36.5944 244.977H53.3547C54.2471 244.977 54.9705 244.253 54.9705 243.361C54.9705 242.469 54.2471 241.745 53.3547 241.745Z" fill="#BCBCDF"/>
<path d="M112.94 241.745H96.1793C95.2869 241.745 94.5635 242.469 94.5635 243.361C94.5635 244.253 95.2869 244.977 96.1793 244.977H112.94C113.832 244.977 114.555 244.253 114.555 243.361C114.555 242.469 113.832 241.745 112.94 241.745Z" fill="#BCBCDF"/>
<path d="M61.4077 225.975H36.5944C35.702 225.975 34.9785 226.698 34.9785 227.59C34.9785 228.483 35.702 229.206 36.5944 229.206H61.4077C62.3001 229.206 63.0235 228.483 63.0235 227.59C63.0235 226.698 62.3001 225.975 61.4077 225.975Z" fill="#E0E0EF"/>
<path d="M120.993 225.975H96.1793C95.2869 225.975 94.5635 226.698 94.5635 227.59C94.5635 228.483 95.2869 229.206 96.1793 229.206H120.993C121.885 229.206 122.608 228.483 122.608 227.59C122.608 226.698 121.885 225.975 120.993 225.975Z" fill="#E0E0EF"/>
<path d="M61.4077 247.977H36.5944C35.702 247.977 34.9785 248.7 34.9785 249.593C34.9785 250.485 35.702 251.209 36.5944 251.209H61.4077C62.3001 251.209 63.0235 250.485 63.0235 249.593C63.0235 248.7 62.3001 247.977 61.4077 247.977Z" fill="#E0E0EF"/>
<path d="M120.993 247.977H96.1793C95.2869 247.977 94.5635 248.7 94.5635 249.593C94.5635 250.485 95.2869 251.209 96.1793 251.209H120.993C121.885 251.209 122.608 250.485 122.608 249.593C122.608 248.7 121.885 247.977 120.993 247.977Z" fill="#E0E0EF"/>
</g>
<g clip-path="url(#clip2_70_126)" filter="url(#filter5_d_70_126)">
<path d="M623.238 0H472C462.059 0 454 8.05887 454 18V184.958C454 194.899 462.059 202.958 472 202.958H623.238C633.179 202.958 641.238 194.899 641.238 184.958V18C641.238 8.05887 633.179 0 623.238 0Z" fill="white"/>
<path d="M619.762 12.5391H475.476C469.953 12.5391 465.476 17.0163 465.476 22.5391V180.419C465.476 185.942 469.953 190.419 475.476 190.419H619.762C625.284 190.419 629.762 185.942 629.762 180.419V22.5391C629.762 17.0163 625.284 12.5391 619.762 12.5391Z" fill="#F3F3FD"/>
<path d="M554.825 31.8721H541.437C538.354 31.8721 535.854 34.3721 535.854 37.456C535.854 40.5398 538.354 43.0398 541.437 43.0398H554.825C557.909 43.0398 560.409 40.5398 560.409 37.456C560.409 34.3721 557.909 31.8721 554.825 31.8721Z" fill="#E1E1F5"/>
<path d="M573.358 117.012H541.437C538.354 117.012 535.854 119.512 535.854 122.596C535.854 125.68 538.354 128.18 541.437 128.18H573.358C576.442 128.18 578.942 125.68 578.942 122.596C578.942 119.512 576.442 117.012 573.358 117.012Z" fill="#E1E1F5"/>
<path d="M571.558 53.1572H487.141C484.057 53.1572 481.557 55.6572 481.557 58.7411C481.557 61.8249 484.057 64.3249 487.141 64.3249H571.558C574.642 64.3249 577.142 61.8249 577.142 58.7411C577.142 55.6572 574.642 53.1572 571.558 53.1572Z" fill="#E1E1F5"/>
<path d="M571.558 159.917H487.141C484.057 159.917 481.557 162.417 481.557 165.501C481.557 168.585 484.057 171.085 487.141 171.085H571.558C574.642 171.085 577.142 168.585 577.142 165.501C577.142 162.417 574.642 159.917 571.558 159.917Z" fill="#E1E1F5"/>
<path d="M554.825 138.297H487.141C484.057 138.297 481.557 140.797 481.557 143.881C481.557 146.965 484.057 149.465 487.141 149.465H554.825C557.909 149.465 560.409 146.965 560.409 143.881C560.409 140.797 557.909 138.297 554.825 138.297Z" fill="#E1E1F5"/>
<path d="M507.296 74.4424H487.141C484.057 74.4424 481.557 76.9424 481.557 80.0263C481.557 83.1101 484.057 85.6101 487.141 85.6101H507.296C510.379 85.6101 512.879 83.1101 512.879 80.0263C512.879 76.9424 510.379 74.4424 507.296 74.4424Z" fill="#E1E1F5"/>
<path d="M590.9 74.4424H524.533C521.449 74.4424 518.949 76.9424 518.949 80.0263C518.949 83.1101 521.449 85.6101 524.533 85.6101H590.9C593.984 85.6101 596.484 83.1101 596.484 80.0263C596.484 76.9424 593.984 74.4424 590.9 74.4424Z" fill="#E1E1F5"/>
<path d="M608.096 95.7271H487.141C484.057 95.7271 481.557 98.2271 481.557 101.311C481.557 104.395 484.057 106.895 487.141 106.895H608.096C611.18 106.895 613.68 104.395 613.68 101.311C613.68 98.2271 611.18 95.7271 608.096 95.7271Z" fill="#E1E1F5"/>
<g filter="url(#filter6_d_70_126)">
<path d="M524.199 31.8721H487.141C484.057 31.8721 481.557 34.3721 481.557 37.456C481.557 40.5398 484.057 43.0398 487.141 43.0398H524.199C527.283 43.0398 529.783 40.5398 529.783 37.456C529.783 34.3721 527.283 31.8721 524.199 31.8721Z" fill="#3434FF" fill-opacity="0.01"/>
</g>
<path d="M524.199 31.8721H487.141C484.057 31.8721 481.557 34.3721 481.557 37.456C481.557 40.5398 484.057 43.0398 487.141 43.0398H524.199C527.283 43.0398 529.783 40.5398 529.783 37.456C529.783 34.3721 527.283 31.8721 524.199 31.8721Z" fill="#3434FF"/>
<g filter="url(#filter7_d_70_126)">
<path d="M524.199 117.012H487.141C484.057 117.012 481.557 119.512 481.557 122.596C481.557 125.68 484.057 128.18 487.141 128.18H524.199C527.283 128.18 529.783 125.68 529.783 122.596C529.783 119.512 527.283 117.012 524.199 117.012Z" fill="#3434FF" fill-opacity="0.01"/>
</g>
<path d="M524.199 117.012H487.141C484.057 117.012 481.557 119.512 481.557 122.596C481.557 125.68 484.057 128.18 487.141 128.18H524.199C527.283 128.18 529.783 125.68 529.783 122.596C529.783 119.512 527.283 117.012 524.199 117.012Z" fill="#3434FF"/>
<g filter="url(#filter8_d_70_126)">
<path d="M607.93 53.1567H588.796C585.712 53.1567 583.212 55.6567 583.212 58.7406C583.212 61.8244 585.712 64.3244 588.796 64.3244H607.93C611.014 64.3244 613.514 61.8244 613.514 58.7406C613.514 55.6567 611.014 53.1567 607.93 53.1567Z" fill="#3434FF" fill-opacity="0.01"/>
</g>
<path d="M607.93 53.1567H588.796C585.712 53.1567 583.212 55.6567 583.212 58.7406C583.212 61.8244 585.712 64.3244 588.796 64.3244H607.93C611.014 64.3244 613.514 61.8244 613.514 58.7406C613.514 55.6567 611.014 53.1567 607.93 53.1567Z" fill="#3434FF"/>
<g filter="url(#filter9_d_70_126)">
<path d="M607.93 159.917H588.796C585.712 159.917 583.212 162.417 583.212 165.501C583.212 168.585 585.712 171.085 588.796 171.085H607.93C611.014 171.085 613.514 168.585 613.514 165.501C613.514 162.417 611.014 159.917 607.93 159.917Z" fill="#3434FF" fill-opacity="0.01"/>
</g>
<path d="M607.93 159.917H588.796C585.712 159.917 583.212 162.417 583.212 165.501C583.212 168.585 585.712 171.085 588.796 171.085H607.93C611.014 171.085 613.514 168.585 613.514 165.501C613.514 162.417 611.014 159.917 607.93 159.917Z" fill="#3434FF"/>
</g>
<g filter="url(#filter10_d_70_126)">
<mask id="mask0_70_126" style="mask-type:luminance" maskUnits="userSpaceOnUse" x="384" y="257" width="207" height="141">
<path d="M591 257.5H384V397.5H591V257.5Z" fill="white"/>
</mask>
<g mask="url(#mask0_70_126)">
<path d="M572.27 257.5H402C392.059 257.5 384 265.559 384 275.5V378.657C384 388.598 392.059 396.657 402 396.657H572.27C582.211 396.657 590.27 388.598 590.27 378.657V275.5C590.27 265.559 582.211 257.5 572.27 257.5Z" fill="white"/>
<path d="M572.558 268.789H401.713C398.399 268.789 395.713 271.475 395.713 274.789V379.368C395.713 382.682 398.399 385.368 401.713 385.368H572.558C575.872 385.368 578.558 382.682 578.558 379.368V274.789C578.558 271.475 575.872 268.789 572.558 268.789Z" fill="#F8F8FF"/>
<path d="M439.373 324.717C439.373 322.124 437.27 320.021 434.677 320.021C432.083 320.021 429.98 322.124 429.98 324.717V367.487C429.98 370.081 432.083 372.183 434.677 372.183C437.27 372.183 439.373 370.081 439.373 367.487V324.717Z" fill="#E0E0F2"/>
<path d="M474.346 324.717C474.346 322.124 472.243 320.021 469.649 320.021C467.056 320.021 464.953 322.124 464.953 324.717V367.487C464.953 370.081 467.056 372.183 469.649 372.183C472.243 372.183 474.346 370.081 474.346 367.487V324.717Z" fill="#E0E0F2"/>
<path d="M509.317 332.241C509.317 329.648 507.215 327.545 504.621 327.545C502.028 327.545 499.925 329.648 499.925 332.241V367.488C499.925 370.081 502.028 372.184 504.621 372.184C507.215 372.184 509.317 370.081 509.317 367.488V332.241Z" fill="#E0E0F2"/>
<path d="M544.289 332.241C544.289 329.647 542.187 327.544 539.593 327.544C537 327.544 534.897 329.647 534.897 332.241V367.487C534.897 370.081 537 372.183 539.593 372.183C542.187 372.183 544.289 370.081 544.289 367.487V332.241Z" fill="#E0E0F2"/>
<g filter="url(#filter11_d_70_126)">
<path d="M421.887 342.022C421.887 339.429 419.784 337.326 417.19 337.326C414.597 337.326 412.494 339.429 412.494 342.022V367.489C412.494 370.082 414.597 372.185 417.19 372.185C419.784 372.185 421.887 370.082 421.887 367.489V342.022Z" fill="#3434FF" fill-opacity="0.01"/>
<path d="M456.859 315.131C456.859 312.537 454.757 310.435 452.163 310.435C449.569 310.435 447.467 312.537 447.467 315.131V367.487C447.467 370.081 449.569 372.183 452.163 372.183C454.757 372.183 456.859 370.081 456.859 367.487V315.131Z" fill="#3434FF" fill-opacity="0.01"/>
<path d="M491.831 304.655C491.831 302.062 489.728 299.959 487.135 299.959C484.541 299.959 482.438 302.062 482.438 304.655V367.488C482.438 370.081 484.541 372.184 487.135 372.184C489.728 372.184 491.831 370.081 491.831 367.488V304.655Z" fill="#3434FF" fill-opacity="0.01"/>
<path d="M526.804 293.744C526.804 291.15 524.701 289.048 522.107 289.048C519.514 289.048 517.411 291.15 517.411 293.744V367.488C517.411 370.082 519.514 372.184 522.107 372.184C524.701 372.184 526.804 370.082 526.804 367.488V293.744Z" fill="#3434FF" fill-opacity="0.01"/>
<path d="M561.777 286.668C561.777 284.074 559.674 281.972 557.08 281.972C554.487 281.972 552.384 284.074 552.384 286.668V367.488C552.384 370.082 554.487 372.184 557.08 372.184C559.674 372.184 561.777 370.082 561.777 367.488V286.668Z" fill="#3434FF" fill-opacity="0.01"/>
</g>
<path d="M421.887 342.022C421.887 339.429 419.784 337.326 417.19 337.326C414.597 337.326 412.494 339.429 412.494 342.022V367.489C412.494 370.082 414.597 372.185 417.19 372.185C419.784 372.185 421.887 370.082 421.887 367.489V342.022Z" fill="#3434FF"/>
<path d="M456.859 315.131C456.859 312.537 454.757 310.435 452.163 310.435C449.569 310.435 447.467 312.537 447.467 315.131V367.487C447.467 370.081 449.569 372.183 452.163 372.183C454.757 372.183 456.859 370.081 456.859 367.487V315.131Z" fill="#3434FF"/>
<path d="M491.831 304.655C491.831 302.062 489.728 299.959 487.135 299.959C484.541 299.959 482.438 302.062 482.438 304.655V367.488C482.438 370.081 484.541 372.184 487.135 372.184C489.728 372.184 491.831 370.081 491.831 367.488V304.655Z" fill="#3434FF"/>
<path d="M526.804 293.744C526.804 291.151 524.701 289.048 522.107 289.048C519.514 289.048 517.411 291.151 517.411 293.744V367.488C517.411 370.082 519.514 372.184 522.107 372.184C524.701 372.184 526.804 370.082 526.804 367.488V293.744Z" fill="#3434FF"/>
<path d="M561.777 286.668C561.777 284.074 559.674 281.972 557.08 281.972C554.487 281.972 552.384 284.074 552.384 286.668V367.488C552.384 370.082 554.487 372.184 557.08 372.184C559.674 372.184 561.777 370.082 561.777 367.488V286.668Z" fill="#3434FF"/>
</g>
</g>
<defs>
<filter id="filter0_d_70_126" x="40" y="68" width="492" height="317" filterUnits="userSpaceOnUse" color-interpolation-filters="sRGB">
<feFlood flood-opacity="0" result="BackgroundImageFix"/>
<feColorMatrix in="SourceAlpha" type="matrix" values="0 0 0 0 0 0 0 0 0 0 0 0 0 0 0 0 0 0 127 0" result="hardAlpha"/>
<feOffset dy="4"/>
<feGaussianBlur stdDeviation="2"/>
<feComposite in2="hardAlpha" operator="out"/>
<feColorMatrix type="matrix" values="0 0 0 0 0 0 0 0 0 0 0 0 0 0 0 0 0 0 0.25 0"/>
<feBlend mode="normal" in2="BackgroundImageFix" result="effect1_dropShadow_70_126"/>
<feBlend mode="normal" in="SourceGraphic" in2="effect1_dropShadow_70_126" result="shape"/>
</filter>
<filter id="filter1_d_70_126" x="140.569" y="115.273" width="119.088" height="119.088" filterUnits="userSpaceOnUse" color-interpolation-filters="sRGB">
<feFlood flood-opacity="0" result="BackgroundImageFix"/>
<feColorMatrix in="SourceAlpha" type="matrix" values="0 0 0 0 0 0 0 0 0 0 0 0 0 0 0 0 0 0 127 0" result="hardAlpha"/>
<feOffset dy="4"/>
<feGaussianBlur stdDeviation="12"/>
<feColorMatrix type="matrix" values="0 0 0 0 0.203922 0 0 0 0 0.203922 0 0 0 0 1 0 0 0 0.54 0"/>
<feBlend mode="normal" in2="BackgroundImageFix" result="effect1_dropShadow_70_126"/>
<feBlend mode="normal" in="SourceGraphic" in2="effect1_dropShadow_70_126" result="shape"/>
</filter>
<filter id="filter2_d_70_126" x="0" y="146" width="140" height="243" filterUnits="userSpaceOnUse" color-interpolation-filters="sRGB">
<feFlood flood-opacity="0" result="BackgroundImageFix"/>
<feColorMatrix in="SourceAlpha" type="matrix" values="0 0 0 0 0 0 0 0 0 0 0 0 0 0 0 0 0 0 127 0" result="hardAlpha"/>
<feOffset dy="4"/>
<feGaussianBlur stdDeviation="2"/>
<feComposite in2="hardAlpha" operator="out"/>
<feColorMatrix type="matrix" values="0 0 0 0 0 0 0 0 0 0 0 0 0 0 0 0 0 0 0.25 0"/>
<feBlend mode="normal" in2="BackgroundImageFix" result="effect1_dropShadow_70_126"/>
<feBlend mode="normal" in="SourceGraphic" in2="effect1_dropShadow_70_126" result="shape"/>
</filter>
<filter id="filter3_d_70_126" x="36.667" y="345.508" width="66.667" height="28.49" filterUnits="userSpaceOnUse" color-interpolation-filters="sRGB">
<feFlood flood-opacity="0" result="BackgroundImageFix"/>
<feColorMatrix in="SourceAlpha" type="matrix" values="0 0 0 0 0 0 0 0 0 0 0 0 0 0 0 0 0 0 127 0" result="hardAlpha"/>
<feOffset dy="3"/>
<feGaussianBlur stdDeviation="3"/>
<feColorMatrix type="matrix" values="0 0 0 0 0.203922 0 0 0 0 0.203922 0 0 0 0 1 0 0 0 0.32 0"/>
<feBlend mode="normal" in2="BackgroundImageFix" result="effect1_dropShadow_70_126"/>
<feBlend mode="normal" in="SourceGraphic" in2="effect1_dropShadow_70_126" result="shape"/>
</filter>
<filter id="filter4_d_70_126" x="9.38965" y="159.227" width="121.22" height="57.1733" filterUnits="userSpaceOnUse" color-interpolation-filters="sRGB">
<feFlood flood-opacity="0" result="BackgroundImageFix"/>
<feColorMatrix in="SourceAlpha" type="matrix" values="0 0 0 0 0 0 0 0 0 0 0 0 0 0 0 0 0 0 127 0" result="hardAlpha"/>
<feOffset dy="6"/>
<feGaussianBlur stdDeviation="4"/>
<feColorMatrix type="matrix" values="0 0 0 0 0.203922 0 0 0 0 0.203922 0 0 0 0 1 0 0 0 0.1 0"/>
<feBlend mode="normal" in2="BackgroundImageFix" result="effect1_dropShadow_70_126"/>
<feBlend mode="normal" in="SourceGraphic" in2="effect1_dropShadow_70_126" result="shape"/>
</filter>
<filter id="filter5_d_70_126" x="450" y="0" width="196" height="211" filterUnits="userSpaceOnUse" color-interpolation-filters="sRGB">
<feFlood flood-opacity="0" result="BackgroundImageFix"/>
<feColorMatrix in="SourceAlpha" type="matrix" values="0 0 0 0 0 0 0 0 0 0 0 0 0 0 0 0 0 0 127 0" result="hardAlpha"/>
<feOffset dy="4"/>
<feGaussianBlur stdDeviation="2"/>
<feComposite in2="hardAlpha" operator="out"/>
<feColorMatrix type="matrix" values="0 0 0 0 0 0 0 0 0 0 0 0 0 0 0 0 0 0 0.25 0"/>
<feBlend mode="normal" in2="BackgroundImageFix" result="effect1_dropShadow_70_126"/>
<feBlend mode="normal" in="SourceGraphic" in2="effect1_dropShadow_70_126" result="shape"/>
</filter>
<filter id="filter6_d_70_126" x="475.557" y="28.8721" width="60.2266" height="23.1677" filterUnits="userSpaceOnUse" color-interpolation-filters="sRGB">
<feFlood flood-opacity="0" result="BackgroundImageFix"/>
<feColorMatrix in="SourceAlpha" type="matrix" values="0 0 0 0 0 0 0 0 0 0 0 0 0 0 0 0 0 0 127 0" result="hardAlpha"/>
<feOffset dy="3"/>
<feGaussianBlur stdDeviation="3"/>
<feColorMatrix type="matrix" values="0 0 0 0 0.203922 0 0 0 0 0.203922 0 0 0 0 1 0 0 0 0.32 0"/>
<feBlend mode="normal" in2="BackgroundImageFix" result="effect1_dropShadow_70_126"/>
<feBlend mode="normal" in="SourceGraphic" in2="effect1_dropShadow_70_126" result="shape"/>
</filter>
<filter id="filter7_d_70_126" x="475.557" y="114.012" width="60.2266" height="23.168" filterUnits="userSpaceOnUse" color-interpolation-filters="sRGB">
<feFlood flood-opacity="0" result="BackgroundImageFix"/>
<feColorMatrix in="SourceAlpha" type="matrix" values="0 0 0 0 0 0 0 0 0 0 0 0 0 0 0 0 0 0 127 0" result="hardAlpha"/>
<feOffset dy="3"/>
<feGaussianBlur stdDeviation="3"/>
<feColorMatrix type="matrix" values="0 0 0 0 0.203922 0 0 0 0 0.203922 0 0 0 0 1 0 0 0 0.32 0"/>
<feBlend mode="normal" in2="BackgroundImageFix" result="effect1_dropShadow_70_126"/>
<feBlend mode="normal" in="SourceGraphic" in2="effect1_dropShadow_70_126" result="shape"/>
</filter>
<filter id="filter8_d_70_126" x="577.212" y="50.1567" width="42.3018" height="23.1677" filterUnits="userSpaceOnUse" color-interpolation-filters="sRGB">
<feFlood flood-opacity="0" result="BackgroundImageFix"/>
<feColorMatrix in="SourceAlpha" type="matrix" values="0 0 0 0 0 0 0 0 0 0 0 0 0 0 0 0 0 0 127 0" result="hardAlpha"/>
<feOffset dy="3"/>
<feGaussianBlur stdDeviation="3"/>
<feColorMatrix type="matrix" values="0 0 0 0 0.203922 0 0 0 0 0.203922 0 0 0 0 1 0 0 0 0.32 0"/>
<feBlend mode="normal" in2="BackgroundImageFix" result="effect1_dropShadow_70_126"/>
<feBlend mode="normal" in="SourceGraphic" in2="effect1_dropShadow_70_126" result="shape"/>
</filter>
<filter id="filter9_d_70_126" x="577.212" y="156.917" width="42.3018" height="23.168" filterUnits="userSpaceOnUse" color-interpolation-filters="sRGB">
<feFlood flood-opacity="0" result="BackgroundImageFix"/>
<feColorMatrix in="SourceAlpha" type="matrix" values="0 0 0 0 0 0 0 0 0 0 0 0 0 0 0 0 0 0 127 0" result="hardAlpha"/>
<feOffset dy="3"/>
<feGaussianBlur stdDeviation="3"/>
<feColorMatrix type="matrix" values="0 0 0 0 0.203922 0 0 0 0 0.203922 0 0 0 0 1 0 0 0 0.32 0"/>
<feBlend mode="normal" in2="BackgroundImageFix" result="effect1_dropShadow_70_126"/>
<feBlend mode="normal" in="SourceGraphic" in2="effect1_dropShadow_70_126" result="shape"/>
</filter>
<filter id="filter10_d_70_126" x="380" y="257" width="215" height="149" filterUnits="userSpaceOnUse" color-interpolation-filters="sRGB">
<feFlood flood-opacity="0" result="BackgroundImageFix"/>
<feColorMatrix in="SourceAlpha" type="matrix" values="0 0 0 0 0 0 0 0 0 0 0 0 0 0 0 0 0 0 127 0" result="hardAlpha"/>
<feOffset dy="4"/>
<feGaussianBlur stdDeviation="2"/>
<feComposite in2="hardAlpha" operator="out"/>
<feColorMatrix type="matrix" values="0 0 0 0 0 0 0 0 0 0 0 0 0 0 0 0 0 0 0.25 0"/>
<feBlend mode="normal" in2="BackgroundImageFix" result="effect1_dropShadow_70_126"/>
<feBlend mode="normal" in="SourceGraphic" in2="effect1_dropShadow_70_126" result="shape"/>
</filter>
<filter id="filter11_d_70_126" x="408.494" y="279.972" width="157.282" height="98.2133" filterUnits="userSpaceOnUse" color-interpolation-filters="sRGB">
<feFlood flood-opacity="0" result="BackgroundImageFix"/>
<feColorMatrix in="SourceAlpha" type="matrix" values="0 0 0 0 0 0 0 0 0 0 0 0 0 0 0 0 0 0 127 0" result="hardAlpha"/>
<feOffset dy="2"/>
<feGaussianBlur stdDeviation="2"/>
<feColorMatrix type="matrix" values="0 0 0 0 0.203922 0 0 0 0 0.203922 0 0 0 0 1 0 0 0 0.35 0"/>
<feBlend mode="normal" in2="BackgroundImageFix" result="effect1_dropShadow_70_126"/>
<feBlend mode="normal" in="SourceGraphic" in2="effect1_dropShadow_70_126" result="shape"/>
</filter>
<clipPath id="clip0_70_126">
<rect width="484" height="309" fill="white" transform="translate(44 68)"/>
</clipPath>
<clipPath id="clip1_70_126">
<rect width="132" height="235" fill="white" transform="translate(4 146)"/>
</clipPath>
<clipPath id="clip2_70_126">
<rect width="188" height="203" fill="white" transform="translate(454)"/>
</clipPath>
</defs>
</svg>
