<svg width="57" height="77" viewBox="0 0 57 77" fill="none" xmlns="http://www.w3.org/2000/svg">
<path d="M56.5037 37.469L30.4487 1.051C30.2161 0.726192 29.9094 0.461453 29.5542 0.27869C29.1989 0.0959273 28.8052 0.000395596 28.4057 0H28.3997C27.9987 0.000837728 27.6037 0.0973603 27.2475 0.281548C26.8913 0.465735 26.5842 0.732268 26.3517 1.059L0.464714 37.477C0.197096 37.8535 0.0384298 38.2965 0.00614587 38.7573C-0.0261381 39.2181 0.069211 39.6789 0.281716 40.089C0.493043 40.4997 0.813631 40.8441 1.20816 41.0842C1.60269 41.3243 2.05585 41.4509 2.51772 41.45H14.7007L14.6997 74.159C14.6996 74.4894 14.7646 74.8166 14.891 75.1218C15.0174 75.4271 15.2027 75.7044 15.4364 75.938C15.6701 76.1716 15.9475 76.3568 16.2528 76.4831C16.5581 76.6094 16.8853 76.6743 17.2157 76.674L39.7567 76.673C40.0872 76.6731 40.4146 76.6081 40.7199 76.4817C41.0253 76.3552 41.3028 76.1698 41.5364 75.936C41.7701 75.7023 41.9554 75.4247 42.0818 75.1193C42.2081 74.8139 42.273 74.4865 42.2727 74.156V41.451H54.4597C55.3997 41.451 56.2627 40.921 56.6967 40.084C56.9084 39.6726 57.0024 39.2107 56.9683 38.7493C56.9343 38.2879 56.7735 37.8449 56.5037 37.469Z" fill="#3434FF"/>
</svg>
